<svg width="16" height="16" viewBox="0 0 16 16" fill="none" xmlns="http://www.w3.org/2000/svg">
<mask id="path-1-inside-1_56_110" fill="white">
<path d="M2 6.82264L2.498 6.77998C2.48652 6.65192 2.42616 6.5332 2.32944 6.44849C2.23273 6.36378 2.10709 6.31957 1.97864 6.32507C1.85019 6.33056 1.72878 6.38532 1.63965 6.47798C1.55052 6.57064 1.50051 6.69407 1.5 6.82264H2ZM13.4907 8.03798L13.02 10.758L14.006 10.9286L14.476 8.20864L13.4907 8.03798ZM8.83 14.1666H5.73067V15.1666H8.83V14.1666ZM5.12333 13.6086L4.582 7.34664L3.58533 7.43264L4.12733 13.6946L5.12333 13.6086ZM13.02 10.758C12.682 12.7113 10.9207 14.1666 8.83 14.1666V15.1666C11.3807 15.1666 13.5807 13.3873 14.006 10.9286L13.02 10.758ZM8.83667 3.39998L8.39467 6.09664L9.38133 6.25798L9.82333 3.56198L8.83667 3.39998ZM4.792 6.83064L5.75133 6.00398L5.098 5.24664L4.14 6.07331L4.792 6.83064ZM7.496 3.31464L7.81333 2.09198L6.84533 1.84131L6.528 3.06331L7.496 3.31464ZM8.292 1.85198L8.38867 1.88331L8.69467 0.93131L8.598 0.899977L8.292 1.85198ZM7.01533 4.54398C7.22346 4.15458 7.3848 3.74194 7.496 3.31464L6.528 3.06331C6.43614 3.41417 6.30369 3.75312 6.13333 4.07331L7.01533 4.54398ZM8.38867 1.88331C8.48364 1.91242 8.56979 1.9649 8.63921 2.03595C8.70864 2.107 8.75911 2.19435 8.786 2.28998L9.754 2.03931C9.6854 1.78018 9.55226 1.54265 9.36702 1.34889C9.18177 1.15514 8.95046 1.01147 8.69467 0.93131L8.38867 1.88331ZM7.81333 2.09198C7.82682 2.04405 7.85048 1.9996 7.88269 1.96163C7.9149 1.92367 7.95491 1.89309 8 1.87198L7.566 0.97131C7.21133 1.14198 6.94467 1.45798 6.84533 1.84131L7.81333 2.09198ZM8 1.87198C8.09131 1.82866 8.19563 1.82152 8.292 1.85198L8.598 0.899977C8.25751 0.791131 7.88828 0.816653 7.566 0.97131L8 1.87198ZM9.436 7.32264H12.8893V6.32264H9.436V7.32264ZM3.146 14.2706L2.498 6.77998L1.502 6.86598L2.14867 14.3566L3.146 14.2706ZM2.5 14.342V6.82264H1.5V14.342H2.5ZM2.14867 14.3566C2.14663 14.3324 2.15033 14.308 2.15822 14.285C2.16612 14.262 2.17871 14.2409 2.1952 14.2231C2.21169 14.2052 2.23171 14.191 2.254 14.1812C2.27629 14.1715 2.30035 14.1666 2.32467 14.1666V15.1666C2.80867 15.1666 3.18733 14.752 3.146 14.2706L2.14867 14.3566ZM9.82333 3.56198C9.90714 3.05517 9.88352 2.53641 9.754 2.03931L8.786 2.29064C8.88055 2.65277 8.89781 3.03074 8.83667 3.39998L9.82333 3.56198ZM5.73067 14.1666C5.57801 14.1664 5.43098 14.1089 5.31857 14.0057C5.20615 13.9024 5.1365 13.7607 5.12333 13.6086L4.12733 13.6946C4.16202 14.0961 4.34592 14.4699 4.64274 14.7424C4.93955 15.015 5.32773 15.1663 5.73067 15.1666V14.1666ZM5.75133 6.00398C6.20467 5.61331 6.69267 5.14864 7.016 4.54398L6.13333 4.07331C5.90267 4.50598 5.53533 4.87064 5.098 5.24664L5.75133 6.00398ZM14.476 8.20864C14.5161 7.9773 14.5052 7.73998 14.444 7.51331C14.3828 7.28663 14.2727 7.07608 14.1216 6.89641C13.9704 6.71674 13.7818 6.57229 13.5689 6.47318C13.3561 6.37406 13.1241 6.32269 12.8893 6.32264V7.32264C13.2673 7.32264 13.556 7.66398 13.4907 8.03798L14.476 8.20864ZM2.32467 14.1666C2.422 14.1666 2.5 14.2453 2.5 14.342H1.5C1.5 14.7966 1.86867 15.1666 2.32467 15.1666V14.1666ZM8.39467 6.09664C8.36981 6.2477 8.37812 6.40235 8.41901 6.54987C8.4599 6.69739 8.5324 6.83425 8.63147 6.95095C8.73054 7.06766 8.85381 7.16141 8.99274 7.22571C9.13166 7.29001 9.28292 7.32264 9.436 7.32264V6.32264C9.42787 6.32268 9.41982 6.32159 9.41245 6.31816C9.40507 6.31474 9.39854 6.30972 9.39332 6.30349C9.3881 6.29725 9.38432 6.28994 9.38225 6.28207C9.38017 6.2742 9.37986 6.26598 9.38133 6.25798L8.39467 6.09664ZM4.582 7.34664C4.57387 7.25011 4.58805 7.15302 4.62467 7.06333C4.66129 6.97364 4.71863 6.8939 4.792 6.83064L4.13867 6.07264C3.94543 6.2394 3.79451 6.44963 3.69832 6.68605C3.60213 6.92247 3.56341 7.17834 3.58533 7.43264L4.582 7.34664Z"/>
</mask>
<path d="M2 6.82264L2.498 6.77998C2.48652 6.65192 2.42616 6.5332 2.32944 6.44849C2.23273 6.36378 2.10709 6.31957 1.97864 6.32507C1.85019 6.33056 1.72878 6.38532 1.63965 6.47798C1.55052 6.57064 1.50051 6.69407 1.5 6.82264H2ZM13.4907 8.03798L13.02 10.758L14.006 10.9286L14.476 8.20864L13.4907 8.03798ZM8.83 14.1666H5.73067V15.1666H8.83V14.1666ZM5.12333 13.6086L4.582 7.34664L3.58533 7.43264L4.12733 13.6946L5.12333 13.6086ZM13.02 10.758C12.682 12.7113 10.9207 14.1666 8.83 14.1666V15.1666C11.3807 15.1666 13.5807 13.3873 14.006 10.9286L13.02 10.758ZM8.83667 3.39998L8.39467 6.09664L9.38133 6.25798L9.82333 3.56198L8.83667 3.39998ZM4.792 6.83064L5.75133 6.00398L5.098 5.24664L4.14 6.07331L4.792 6.83064ZM7.496 3.31464L7.81333 2.09198L6.84533 1.84131L6.528 3.06331L7.496 3.31464ZM8.292 1.85198L8.38867 1.88331L8.69467 0.93131L8.598 0.899977L8.292 1.85198ZM7.01533 4.54398C7.22346 4.15458 7.3848 3.74194 7.496 3.31464L6.528 3.06331C6.43614 3.41417 6.30369 3.75312 6.13333 4.07331L7.01533 4.54398ZM8.38867 1.88331C8.48364 1.91242 8.56979 1.9649 8.63921 2.03595C8.70864 2.107 8.75911 2.19435 8.786 2.28998L9.754 2.03931C9.6854 1.78018 9.55226 1.54265 9.36702 1.34889C9.18177 1.15514 8.95046 1.01147 8.69467 0.93131L8.38867 1.88331ZM7.81333 2.09198C7.82682 2.04405 7.85048 1.9996 7.88269 1.96163C7.9149 1.92367 7.95491 1.89309 8 1.87198L7.566 0.97131C7.21133 1.14198 6.94467 1.45798 6.84533 1.84131L7.81333 2.09198ZM8 1.87198C8.09131 1.82866 8.19563 1.82152 8.292 1.85198L8.598 0.899977C8.25751 0.791131 7.88828 0.816653 7.566 0.97131L8 1.87198ZM9.436 7.32264H12.8893V6.32264H9.436V7.32264ZM3.146 14.2706L2.498 6.77998L1.502 6.86598L2.14867 14.3566L3.146 14.2706ZM2.5 14.342V6.82264H1.5V14.342H2.5ZM2.14867 14.3566C2.14663 14.3324 2.15033 14.308 2.15822 14.285C2.16612 14.262 2.17871 14.2409 2.1952 14.2231C2.21169 14.2052 2.23171 14.191 2.254 14.1812C2.27629 14.1715 2.30035 14.1666 2.32467 14.1666V15.1666C2.80867 15.1666 3.18733 14.752 3.146 14.2706L2.14867 14.3566ZM9.82333 3.56198C9.90714 3.05517 9.88352 2.53641 9.754 2.03931L8.786 2.29064C8.88055 2.65277 8.89781 3.03074 8.83667 3.39998L9.82333 3.56198ZM5.73067 14.1666C5.57801 14.1664 5.43098 14.1089 5.31857 14.0057C5.20615 13.9024 5.1365 13.7607 5.12333 13.6086L4.12733 13.6946C4.16202 14.0961 4.34592 14.4699 4.64274 14.7424C4.93955 15.015 5.32773 15.1663 5.73067 15.1666V14.1666ZM5.75133 6.00398C6.20467 5.61331 6.69267 5.14864 7.016 4.54398L6.13333 4.07331C5.90267 4.50598 5.53533 4.87064 5.098 5.24664L5.75133 6.00398ZM14.476 8.20864C14.5161 7.9773 14.5052 7.73998 14.444 7.51331C14.3828 7.28663 14.2727 7.07608 14.1216 6.89641C13.9704 6.71674 13.7818 6.57229 13.5689 6.47318C13.3561 6.37406 13.1241 6.32269 12.8893 6.32264V7.32264C13.2673 7.32264 13.556 7.66398 13.4907 8.03798L14.476 8.20864ZM2.32467 14.1666C2.422 14.1666 2.5 14.2453 2.5 14.342H1.5C1.5 14.7966 1.86867 15.1666 2.32467 15.1666V14.1666ZM8.39467 6.09664C8.36981 6.2477 8.37812 6.40235 8.41901 6.54987C8.4599 6.69739 8.5324 6.83425 8.63147 6.95095C8.73054 7.06766 8.85381 7.16141 8.99274 7.22571C9.13166 7.29001 9.28292 7.32264 9.436 7.32264V6.32264C9.42787 6.32268 9.41982 6.32159 9.41245 6.31816C9.40507 6.31474 9.39854 6.30972 9.39332 6.30349C9.3881 6.29725 9.38432 6.28994 9.38225 6.28207C9.38017 6.2742 9.37986 6.26598 9.38133 6.25798L8.39467 6.09664ZM4.582 7.34664C4.57387 7.25011 4.58805 7.15302 4.62467 7.06333C4.66129 6.97364 4.71863 6.8939 4.792 6.83064L4.13867 6.07264C3.94543 6.2394 3.79451 6.44963 3.69832 6.68605C3.60213 6.92247 3.56341 7.17834 3.58533 7.43264L4.582 7.34664Z" fill="white"/>
<path d="M13.02 10.758L13.1052 10.2653L12.9347 11.2507L13.02 10.758ZM4.12733 13.6946L4.08399 13.1965L4.17035 14.1928L4.12733 13.6946ZM4.582 7.34664L4.62498 7.84479L4.53932 6.84847L4.582 7.34664ZM9.82333 3.56198L9.74232 4.05537L9.90467 3.06864L9.82333 3.56198ZM5.75133 6.00398L5.37274 6.33058L6.13021 5.6777L5.75133 6.00398ZM6.528 3.06331L6.65365 2.57936L6.40203 3.54718L6.528 3.06331ZM8.292 1.85198L7.81599 1.69897L8.76792 2.00528L8.292 1.85198ZM8.69467 0.93131L9.17078 1.08401L8.21865 0.778306L8.69467 0.93131ZM7.566 0.97131L8.01624 0.753861L7.11557 1.18836L7.566 0.97131ZM2.14867 14.3566L2.10571 13.8585L2.19129 14.8548L2.14867 14.3566ZM13.9833 8.12331L14.0687 7.63065L13.576 7.54531L13.4907 8.03798L13.4053 8.53064L13.898 8.61597L13.9833 8.12331ZM13.5133 10.8433L13.5986 10.3506L13.1052 10.2653L13.02 10.758L12.9348 11.2507L13.4281 11.336L13.5133 10.8433ZM4.62533 13.6513L4.58199 13.1532L4.08399 13.1965L4.12733 13.6946L4.17068 14.1928L4.66868 14.1494L4.62533 13.6513ZM4.084 7.38931L4.12668 7.88748L4.62468 7.84482L4.582 7.34664L4.53932 6.84847L4.04132 6.89113L4.084 7.38931ZM9.33 3.48064L9.24867 3.97398L9.742 4.05532L9.82333 3.56198L9.90467 3.06864L9.41133 2.9873L9.33 3.48064ZM8.888 6.17731L8.80731 6.67076L9.30065 6.75142L9.38133 6.25798L9.46202 5.76453L8.96868 5.68386L8.888 6.17731ZM4.46533 6.45131L4.84392 6.12471L4.51726 5.74604L4.13867 6.07264L3.76008 6.39925L4.08674 6.77791L4.46533 6.45131ZM5.42467 5.62464L5.04579 5.95092L5.37246 6.33025L5.75133 6.00398L6.13021 5.6777L5.80354 5.29837L5.42467 5.62464ZM7.012 3.18931L7.13797 2.70544L6.65397 2.57944L6.528 3.06331L6.40203 3.54718L6.88603 3.67318L7.012 3.18931ZM7.32933 1.96664L7.20399 2.45068L7.68799 2.57601L7.81333 2.09198L7.93868 1.60794L7.45468 1.48261L7.32933 1.96664ZM8.44533 1.37598L7.96942 1.22267L7.81608 1.69867L8.292 1.85198L8.76792 2.00528L8.92125 1.52928L8.44533 1.37598ZM8.542 1.40731L9.01811 1.56001L9.17078 1.08401L8.69467 0.93131L8.21855 0.778608L8.06589 1.25461L8.542 1.40731ZM6.57467 4.30864L6.33941 4.74984L6.78074 4.98517L7.016 4.54398L7.25126 4.10278L6.80993 3.86745L6.57467 4.30864ZM9.27 2.16531L9.14466 1.68128L8.66066 1.80661L8.786 2.29064L8.91134 2.77468L9.39534 2.64934L9.27 2.16531ZM7.78333 1.42131L8.23357 1.20386L8.01624 0.753861L7.566 0.97131L7.11576 1.18876L7.33309 1.63876L7.78333 1.42131ZM2.64733 14.314L2.60471 13.8158L2.10604 13.8585L2.14867 14.3566L2.19129 14.8548L2.68996 14.8122L2.64733 14.314ZM13.02 10.758L12.9347 11.2507L13.9207 11.4213L14.006 10.9286L14.0913 10.436L13.1053 10.2653L13.02 10.758ZM14.476 8.20864L14.5613 7.71598L13.576 7.54531L13.4907 8.03798L13.4053 8.53064L14.3907 8.70131L14.476 8.20864ZM5.73067 14.1666H5.23067V15.1666H5.73067H6.23067V14.1666H5.73067ZM8.83 15.1666H9.33V14.1666H8.83H8.33V15.1666H8.83ZM4.582 7.34664L4.53902 6.84849L3.54235 6.93449L3.58533 7.43264L3.62832 7.93079L4.62498 7.84479L4.582 7.34664ZM4.12733 13.6946L4.17035 14.1928L5.16635 14.1068L5.12333 13.6086L5.08032 13.1105L4.08432 13.1965L4.12733 13.6946ZM8.39467 6.09664L8.31398 6.59009L9.30065 6.75142L9.38133 6.25798L9.46202 5.76453L8.47535 5.6032L8.39467 6.09664ZM9.82333 3.56198L9.90434 3.06858L8.91768 2.90658L8.83667 3.39998L8.75566 3.89337L9.74232 4.05537L9.82333 3.56198ZM5.75133 6.00398L6.12992 5.67737L5.47659 4.92004L5.098 5.24664L4.71941 5.57325L5.37274 6.33058L5.75133 6.00398ZM7.81333 2.09198L7.93868 1.60794L6.97067 1.35728L6.84533 1.84131L6.71999 2.32534L7.68799 2.57601L7.81333 2.09198ZM6.528 3.06331L6.40234 3.54726L7.37035 3.7986L7.496 3.31464L7.62165 2.83069L6.65365 2.57936L6.528 3.06331ZM8.38867 1.88331L8.86468 2.03631L9.17068 1.08431L8.69467 0.93131L8.21865 0.778306L7.91265 1.73031L8.38867 1.88331ZM8.598 0.899977L8.12199 0.746972L7.81599 1.69897L8.292 1.85198L8.76801 2.00498L9.07401 1.05298L8.598 0.899977ZM8 1.87198L8.45043 1.65493L8.01643 0.754262L7.566 0.97131L7.11557 1.18836L7.54957 2.08903L8 1.87198ZM12.8893 7.32264H13.3893V6.32264H12.8893H12.3893V7.32264H12.8893ZM9.436 6.32264H8.936V7.32264H9.436H9.936V6.32264H9.436ZM2.14867 14.3566L2.19162 14.8548L3.18896 14.7688L3.146 14.2706L3.10304 13.7725L2.10571 13.8585L2.14867 14.3566ZM1.5 14.342V14.842H2.5V14.342V13.842H1.5V14.342ZM2.32467 14.1666H1.82467V15.1666H2.32467H2.82467V14.1666H2.32467ZM13.4907 8.03798L12.5056 7.86589L12.5053 7.86747L13.4907 8.03798ZM13.02 10.758L12.0346 10.5875V10.5875L13.02 10.758ZM4.12733 13.6946L5.12362 13.6086L5.12361 13.6084L4.12733 13.6946ZM4.582 7.34664L3.58553 7.43058L3.58572 7.43277L4.582 7.34664ZM9.82333 3.56198L8.83673 3.39883L8.83651 3.40019L9.82333 3.56198ZM9.38133 6.25798L10.3649 6.43871L10.3666 6.42925L10.3682 6.41976L9.38133 6.25798ZM4.13867 6.07264L4.89613 5.41977L4.24287 4.66185L3.48534 5.31557L4.13867 6.07264ZM5.75133 6.00398L6.40412 6.76152L6.40414 6.7615L5.75133 6.00398ZM6.528 3.06331L7.49539 3.31659L7.4959 3.31466L6.528 3.06331ZM7.81333 2.09198L6.85075 1.82099L6.84798 1.83085L6.8454 1.84076L7.81333 2.09198ZM8.292 1.85198L8.60035 0.900676L8.5934 0.89848L8.292 1.85198ZM8.69467 0.93131L8.38631 1.88263L8.39561 1.88555L8.69467 0.93131ZM7.016 4.54398L7.89784 5.01552L8.36994 4.13265L7.48652 3.66159L7.016 4.54398ZM8.786 2.29064L8.53469 1.32274L7.56547 1.57439L7.81844 2.54327L8.786 2.29064ZM7.566 0.97131L7.13335 0.0697475L7.13239 0.0702104L7.566 0.97131ZM2.14867 14.3566L1.15237 14.4427L3.14516 14.273L2.14867 14.3566ZM2 6.82264V7.82264H2.04276L2.08536 7.81899L2 6.82264ZM2.498 6.77998L3.49428 6.69379L3.49401 6.69071L2.498 6.77998ZM1.5 6.82264L0.5 6.81871V6.82264H1.5ZM14.006 10.9286L14.9914 11.0991L14.9914 11.0989L14.006 10.9286ZM14.476 8.20864L13.4907 8.0377L13.4906 8.03837L14.476 8.20864ZM5.73067 14.1666L5.72893 15.1666H5.73067V14.1666ZM5.73067 15.1666L5.72983 16.1666H5.73067V15.1666ZM5.12333 13.6086L4.12705 13.6948L4.12706 13.6949L5.12333 13.6086ZM3.58533 7.43264L2.58903 7.51854L2.58906 7.51887L3.58533 7.43264ZM8.83667 3.39998L7.8501 3.2366L7.84983 3.23823L8.83667 3.39998ZM8.39467 6.09664L9.3814 6.25899L9.3815 6.25839L8.39467 6.09664ZM5.098 5.24664L4.44607 4.48837L4.4447 4.48955L5.098 5.24664ZM4.14 6.07331L3.4867 5.31621L2.73047 5.96877L3.38216 6.72575L4.14 6.07331ZM7.496 3.31464L8.46377 3.5665L8.46393 3.56586L7.496 3.31464ZM6.84533 1.84131L7.81323 2.09266L7.81336 2.09216L6.84533 1.84131ZM8.38867 1.88331L8.08032 2.83459L8.08798 2.83707L8.09567 2.83942L8.38867 1.88331ZM8.598 0.899977L8.90635 -0.0513057L8.90249 -0.0525377L8.598 0.899977ZM7.01533 4.54398L6.54454 5.42622L7.4262 5.89671L7.89727 5.01535L7.01533 4.54398ZM8.786 2.28998L7.82334 2.5607L8.0885 3.50358L9.03668 3.25805L8.786 2.28998ZM9.754 2.03931L10.7217 1.78718L10.7207 1.78339L9.754 2.03931ZM8 1.87198L8.42413 2.77759L8.4286 2.77547L8 1.87198ZM9.436 7.32264V6.32264H9.436L9.436 7.32264ZM12.8893 6.32264L12.8895 5.32264H12.8893V6.32264ZM9.436 6.32264V5.32263L9.43158 5.32265L9.436 6.32264ZM3.146 14.2706L4.14233 14.1851L4.14228 14.1845L3.146 14.2706ZM1.502 6.86598L1.41597 5.86968L0.419697 5.95571L0.505706 6.95199L1.502 6.86598ZM2.5 6.82264H3.5V5.82264H2.5V6.82264ZM2.32467 14.1666L2.32116 15.1666H2.32467V14.1666ZM2 6.82264L2.08536 7.81899L2.58336 7.77633L2.498 6.77998L2.41264 5.78363L1.91464 5.82629L2 6.82264ZM2.498 6.77998L3.49401 6.69071C3.45958 6.30654 3.27848 5.95039 2.98833 5.69625L2.32944 6.44849L1.67055 7.20073C1.57383 7.11602 1.51347 6.9973 1.50199 6.86924L2.498 6.77998ZM2.32944 6.44849L2.98833 5.69625C2.69818 5.44211 2.32129 5.3095 1.93593 5.32598L1.97864 6.32507L2.02135 7.32415C1.8929 7.32965 1.76727 7.28544 1.67055 7.20073L2.32944 6.44849ZM1.97864 6.32507L1.93593 5.32598C1.55057 5.34245 1.18636 5.50674 0.918964 5.78472L1.63965 6.47798L2.36034 7.17124C2.27121 7.2639 2.14981 7.31866 2.02135 7.32415L1.97864 6.32507ZM1.63965 6.47798L0.918964 5.78472C0.651565 6.0627 0.501525 6.433 0.500008 6.81871L1.5 6.82264L2.49999 6.82658C2.49949 6.95515 2.44947 7.07858 2.36034 7.17124L1.63965 6.47798ZM1.5 6.82264V7.82264H2V6.82264V5.82264H1.5V6.82264ZM13.4907 8.03798L12.5053 7.86747L12.0346 10.5875L13.02 10.758L14.0054 10.9285L14.476 8.20848L13.4907 8.03798ZM14.006 10.9286L14.9914 11.0989L15.4614 8.37891L14.476 8.20864L13.4906 8.03837L13.0206 10.7584L14.006 10.9286ZM8.83 14.1666V13.1666H5.73067V14.1666V15.1666H8.83V14.1666ZM5.73067 15.1666V16.1666H8.83V15.1666V14.1666H5.73067V15.1666ZM5.12333 13.6086L6.11962 13.5225L5.57828 7.26052L4.582 7.34664L3.58572 7.43277L4.12705 13.6948L5.12333 13.6086ZM3.58533 7.43264L2.58906 7.51887L3.13106 13.7809L4.12733 13.6946L5.12361 13.6084L4.58161 7.34641L3.58533 7.43264ZM13.02 10.758L12.0346 10.5875C11.7839 12.0367 10.4597 13.1666 8.83 13.1666V14.1666V15.1666C11.3816 15.1666 13.5801 13.3859 14.0054 10.9285L13.02 10.758ZM8.83 15.1666V16.1666C11.84 16.1666 14.4786 14.0635 14.9914 11.0991L14.006 10.9286L13.0206 10.7582C12.6828 12.7112 10.9213 14.1666 8.83 14.1666V15.1666ZM8.83667 3.39998L7.84983 3.23823L7.40783 5.9349L8.39467 6.09664L9.3815 6.25839L9.8235 3.56172L8.83667 3.39998ZM9.38133 6.25798L10.3682 6.41976L10.8102 3.72376L9.82333 3.56198L8.83651 3.40019L8.39451 6.09619L9.38133 6.25798ZM4.792 6.83064L5.44478 7.58819L6.40412 6.76152L5.75133 6.00398L5.09855 5.24643L4.13922 6.0731L4.792 6.83064ZM5.098 5.24664L4.4447 4.48955L3.4867 5.31621L4.14 6.07331L4.7933 6.83041L5.7513 6.00374L5.098 5.24664ZM4.14 6.07331L3.38216 6.72575L4.03416 7.48308L4.792 6.83064L5.54984 6.17821L4.89784 5.42087L4.14 6.07331ZM7.496 3.31464L8.46393 3.56586L8.78126 2.3432L7.81333 2.09198L6.8454 1.84076L6.52807 3.06343L7.496 3.31464ZM6.84533 1.84131L5.87744 1.58996L5.5601 2.81196L6.528 3.06331L7.4959 3.31466L7.81323 2.09266L6.84533 1.84131ZM8.292 1.85198L7.98366 2.80325L8.08032 2.83459L8.38867 1.88331L8.69701 0.932035L8.60034 0.900702L8.292 1.85198ZM8.69467 0.93131L9.00301 -0.0199646L8.90634 -0.0512978L8.598 0.899977L8.28965 1.85125L8.38632 1.88258L8.69467 0.93131ZM7.01533 4.54398L7.89727 5.01535C8.14255 4.55642 8.33271 4.07009 8.46377 3.5665L7.496 3.31464L6.52823 3.06279C6.43689 3.41378 6.30436 3.75274 6.1334 4.0726L7.01533 4.54398ZM6.528 3.06331L5.56061 2.81003C5.48843 3.08571 5.38436 3.35203 5.25051 3.6036L6.13333 4.07331L7.01615 4.54302C7.22302 4.15422 7.38385 3.74263 7.49539 3.31659L6.528 3.06331ZM6.13333 4.07331L5.66254 4.95555L6.54454 5.42622L7.01533 4.54398L7.48613 3.66173L6.60413 3.19107L6.13333 4.07331ZM8.38867 1.88331L8.09567 2.83942C8.03057 2.81948 7.97153 2.7835 7.92395 2.7348L8.63921 2.03595L9.35448 1.3371C9.16806 1.1463 8.93671 1.00535 8.68166 0.927196L8.38867 1.88331ZM8.63921 2.03595L7.92395 2.7348C7.87637 2.6861 7.84177 2.62624 7.82334 2.5607L8.786 2.28998L9.74866 2.01926C9.67644 1.76246 9.54091 1.52791 9.35448 1.3371L8.63921 2.03595ZM8.786 2.28998L9.03668 3.25805L10.0047 3.00738L9.754 2.03931L9.50331 1.07124L8.53532 1.32191L8.786 2.28998ZM9.754 2.03931L10.7207 1.78339C10.6089 1.36094 10.3918 0.973707 10.0898 0.657838L9.36702 1.34889L8.64421 2.03995C8.71271 2.11159 8.76194 2.19941 8.7873 2.29523L9.754 2.03931ZM9.36702 1.34889L10.0898 0.657838C9.78782 0.341969 9.41073 0.107761 8.99372 -0.0229269L8.69467 0.93131L8.39561 1.88555C8.49019 1.91519 8.57572 1.96831 8.64421 2.03995L9.36702 1.34889ZM7.81333 2.09198L8.77592 2.36297C8.75049 2.45328 8.70591 2.53706 8.6452 2.60861L7.88269 1.96163L7.12018 1.31466C6.99505 1.46213 6.90316 1.63483 6.85075 1.82099L7.81333 2.09198ZM7.88269 1.96163L8.6452 2.60861C8.58449 2.68016 8.50909 2.73779 8.42412 2.77758L8 1.87198L7.57588 0.966371C7.40073 1.0484 7.24531 1.16718 7.12018 1.31466L7.88269 1.96163ZM7.566 0.97131L7.13239 0.0702104C6.52102 0.364404 6.05276 0.913393 5.87731 1.59046L6.84533 1.84131L7.81336 2.09216C7.83658 2.00256 7.90165 1.91955 7.99961 1.87241L7.566 0.97131ZM8 1.87198L8.4286 2.77547C8.29163 2.84045 8.13514 2.85117 7.99059 2.80547L8.292 1.85198L8.5934 0.89848C8.25613 0.791866 7.89099 0.816875 7.5714 0.96848L8 1.87198ZM8.598 0.899977L8.90249 -0.0525377C8.31879 -0.239131 7.68583 -0.195379 7.13335 0.069748L7.566 0.97131L7.99865 1.87287C8.09073 1.82868 8.19622 1.82139 8.29351 1.85249L8.598 0.899977ZM9.436 7.32264V8.32264H12.8893V7.32264V6.32264H9.436V7.32264ZM12.8893 6.32264V5.32264H9.436V6.32264V7.32264H12.8893V6.32264ZM3.146 14.2706L4.14228 14.1845L3.49428 6.69379L2.498 6.77998L1.50172 6.86616L2.14972 14.3568L3.146 14.2706ZM2.498 6.77998L2.41197 5.78368L1.41597 5.86968L1.502 6.86598L1.58803 7.86227L2.58403 7.77627L2.498 6.77998ZM1.502 6.86598L0.505706 6.95199L1.15237 14.4427L2.14867 14.3566L3.14496 14.2706L2.49829 6.77997L1.502 6.86598ZM2.5 14.342H3.5V6.82264H2.5H1.5V14.342H2.5ZM2.5 6.82264V5.82264H1.5V6.82264V7.82264H2.5V6.82264ZM1.5 6.82264H0.5V14.342H1.5H2.5V6.82264H1.5ZM2.14867 14.3566L3.14516 14.273C3.15623 14.4049 3.13492 14.5198 3.10402 14.6098L2.15822 14.285L1.21243 13.9603C1.16573 14.0963 1.13703 14.26 1.15217 14.4403L2.14867 14.3566ZM2.15822 14.285L3.10402 14.6098C3.06688 14.718 3.00765 14.8172 2.9301 14.9012L2.1952 14.2231L1.4603 13.5449C1.34977 13.6647 1.26536 13.8061 1.21243 13.9603L2.15822 14.285ZM2.1952 14.2231L2.9301 14.9012C2.85254 14.9853 2.75835 15.0523 2.65353 15.098L2.254 14.1812L1.85447 13.2645C1.70507 13.3296 1.57084 13.4251 1.4603 13.5449L2.1952 14.2231ZM2.254 14.1812L2.65353 15.098C2.54871 15.1436 2.43553 15.167 2.32116 15.1666L2.32467 14.1666L2.32817 13.1667C2.16518 13.1661 2.00386 13.1994 1.85447 13.2645L2.254 14.1812ZM2.32467 15.1666V16.1666C3.39711 16.1666 4.2336 15.2479 4.14233 14.1851L3.146 14.2706L2.14967 14.3562C2.14107 14.256 2.22022 14.1666 2.32467 14.1666V15.1666ZM9.82333 3.56198L10.8099 3.72512C10.9166 3.08009 10.8865 2.41985 10.7217 1.78718L9.754 2.03931L8.78631 2.29144C8.8805 2.65296 8.89768 3.03025 8.83673 3.39883L9.82333 3.56198ZM9.754 2.03931L9.50269 1.0714L8.53469 1.32274L8.786 2.29064L9.03731 3.25855L10.0053 3.00722L9.754 2.03931ZM8.786 2.29064L7.81844 2.54327C7.87753 2.7696 7.88832 3.00583 7.8501 3.2366L8.83667 3.39998L9.82323 3.56335C9.90731 3.05565 9.88357 2.53594 9.75356 2.03802L8.786 2.29064ZM5.73067 14.1666L5.7324 13.1666C5.82973 13.1668 5.92346 13.2034 5.99513 13.2693L5.31857 14.0057L4.642 14.742C4.9385 15.0145 5.32629 15.1659 5.72893 15.1666L5.73067 14.1666ZM5.31857 14.0057L5.99513 13.2693C6.06681 13.3351 6.11121 13.4254 6.11961 13.5224L5.12333 13.6086L4.12706 13.6949C4.16178 14.096 4.3455 14.4696 4.642 14.742L5.31857 14.0057ZM4.12733 13.6946L3.13105 13.7807C3.18727 14.4314 3.48535 15.0374 3.96644 15.4791L4.64274 14.7424L5.31903 14.0058C5.2065 13.9025 5.13677 13.7608 5.12362 13.6086L4.12733 13.6946ZM4.64274 14.7424L3.96644 15.4791C4.44754 15.9208 5.07672 16.1661 5.72983 16.1666L5.73067 15.1666L5.73151 14.1666C5.57874 14.1665 5.43157 14.1091 5.31903 14.0058L4.64274 14.7424ZM5.75133 6.00398L6.40414 6.7615C6.87463 6.35605 7.48281 5.79168 7.89784 5.01552L7.016 4.54398L6.13416 4.07243C5.90252 4.50561 5.5347 4.87057 5.09853 5.24645L5.75133 6.00398ZM7.016 4.54398L7.48652 3.66159L6.60385 3.19092L6.13333 4.07331L5.66281 4.9557L6.54548 5.42637L7.016 4.54398ZM6.13333 4.07331L5.2509 3.60286C5.11249 3.86249 4.86665 4.12677 4.44607 4.48837L5.098 5.24664L5.74993 6.00492C6.20401 5.61452 6.69284 5.14946 7.01576 4.54376L6.13333 4.07331ZM14.476 8.20864L15.4613 8.37959C15.5263 8.00461 15.5086 7.61995 15.4094 7.25254L14.444 7.51331L13.4786 7.77407C13.5018 7.86001 13.5059 7.94999 13.4907 8.0377L14.476 8.20864ZM14.444 7.51331L15.4094 7.25254C15.3101 6.88514 15.1318 6.54387 14.8868 6.25264L14.1216 6.89641L13.3563 7.54018C13.4136 7.6083 13.4554 7.68813 13.4786 7.77407L14.444 7.51331ZM14.1216 6.89641L14.8868 6.25264C14.6418 5.96142 14.3361 5.72728 13.9911 5.56664L13.5689 6.47318L13.1468 7.37972C13.2275 7.41729 13.299 7.47206 13.3563 7.54018L14.1216 6.89641ZM13.5689 6.47318L13.9911 5.56664C13.646 5.40599 13.2701 5.32271 12.8895 5.32264L12.8893 6.32264L12.8892 7.32264C12.9782 7.32266 13.0661 7.34214 13.1468 7.37972L13.5689 6.47318ZM12.8893 7.32264V8.32264C12.6484 8.32264 12.4637 8.1059 12.5056 7.86589L13.4907 8.03798L14.4757 8.21006C14.6483 7.22206 13.8862 6.32264 12.8893 6.32264V7.32264ZM2.32467 14.1666V15.1666C1.86724 15.1666 1.5 14.7951 1.5 14.342H2.5H3.5C3.5 13.6955 2.97676 13.1666 2.32467 13.1666V14.1666ZM1.5 14.342H0.5C0.5 15.3479 1.31533 16.1666 2.32467 16.1666V15.1666V14.1666C2.422 14.1666 2.5 14.2454 2.5 14.342H1.5ZM8.39467 6.09664L7.40793 5.93429C7.35953 6.22848 7.37571 6.52967 7.45535 6.81698L8.41901 6.54987L9.38268 6.28276C9.38053 6.27502 9.3801 6.26691 9.3814 6.25899L8.39467 6.09664ZM8.41901 6.54987L7.45535 6.81698C7.53498 7.10429 7.67617 7.37083 7.86912 7.59812L8.63147 6.95095L9.39382 6.30379C9.38862 6.29767 9.38482 6.29049 9.38268 6.28276L8.41901 6.54987ZM8.63147 6.95095L7.86912 7.59812C8.06207 7.82541 8.30215 8.008 8.57272 8.13322L8.99274 7.22571L9.41276 6.31819C9.40547 6.31482 9.39901 6.30991 9.39382 6.30379L8.63147 6.95095ZM8.99274 7.22571L8.57272 8.13322C8.84592 8.25967 9.14079 8.32264 9.436 8.32264L9.436 7.32264L9.436 6.32264C9.42504 6.32264 9.4174 6.32034 9.41276 6.31819L8.99274 7.22571ZM9.436 6.32264L9.43158 5.32265C9.50992 5.32231 9.66201 5.33147 9.83369 5.41121L9.41245 6.31816L8.9912 7.22511C9.17764 7.3117 9.34581 7.32305 9.44042 7.32263L9.436 6.32264ZM9.41245 6.31816L9.83369 5.41121C9.95965 5.46972 10.0711 5.55527 10.1603 5.66176L9.39332 6.30349L8.62638 6.94521C8.72593 7.06418 8.85049 7.15975 8.9912 7.22511L9.41245 6.31816ZM9.39332 6.30349L10.1603 5.66176C10.2494 5.76828 10.3139 5.89313 10.3493 6.0274L9.38225 6.28207L8.41522 6.53674C8.45472 6.68675 8.52681 6.82622 8.62638 6.94521L9.39332 6.30349ZM9.38225 6.28207L10.3493 6.0274C10.3846 6.16166 10.39 6.30209 10.3649 6.43871L9.38133 6.25798L8.3978 6.07724C8.36976 6.22986 8.37572 6.38675 8.41522 6.53674L9.38225 6.28207ZM4.582 7.34664L5.57847 7.2627C5.5832 7.31884 5.57533 7.38045 5.55048 7.44131L4.62467 7.06333L3.69886 6.68535C3.60077 6.92559 3.56454 7.18137 3.58553 7.43058L4.582 7.34664ZM4.62467 7.06333L5.55048 7.44131C5.5274 7.49786 5.49125 7.54813 5.44499 7.58801L4.792 6.83064L4.13901 6.07328C3.94601 6.23968 3.79518 6.44943 3.69886 6.68535L4.62467 7.06333ZM4.792 6.83064L5.54947 6.17777L4.89613 5.41977L4.13867 6.07264L3.3812 6.72552L4.03453 7.48352L4.792 6.83064ZM4.13867 6.07264L3.48534 5.31557C3.17233 5.58569 2.92787 5.92622 2.77205 6.30919L3.69832 6.68605L4.62459 7.06291C4.66116 6.97303 4.71853 6.89311 4.792 6.82972L4.13867 6.07264ZM3.69832 6.68605L2.77205 6.30919C2.61624 6.69215 2.55351 7.10662 2.58903 7.51854L3.58533 7.43264L4.58164 7.34674C4.5733 7.25007 4.58802 7.15279 4.62459 7.06291L3.69832 6.68605Z" fill="white" mask="url(#path-1-inside-1_56_110)"/>
</svg>
