<svg width="16" height="16" viewBox="0 0 16 16" fill="none" xmlns="http://www.w3.org/2000/svg">
<g clip-path="url(#clip0_1_1123)">
<path d="M6.102 3.60534C6.94667 2.09068 7.36867 1.33334 8 1.33334C8.63133 1.33334 9.05333 2.09068 9.898 3.60534L10.1167 3.99734C10.3567 4.42801 10.4767 4.64334 10.6633 4.78534C10.85 4.92734 11.0833 4.98001 11.55 5.08534L11.974 5.18134C13.614 5.55268 14.4333 5.73801 14.6287 6.36534C14.8233 6.99201 14.2647 7.64601 13.1467 8.95334L12.8573 9.29134C12.54 9.66268 12.3807 9.84868 12.3093 10.078C12.238 10.308 12.262 10.556 12.31 11.0513L12.354 11.5027C12.5227 13.2473 12.6073 14.1193 12.0967 14.5067C11.586 14.894 10.818 14.5407 9.28333 13.834L8.88533 13.6513C8.44933 13.45 8.23133 13.35 8 13.35C7.76867 13.35 7.55067 13.45 7.11467 13.6513L6.71733 13.834C5.182 14.5407 4.414 14.894 3.904 14.5073C3.39267 14.1193 3.47733 13.2473 3.646 11.5027L3.69 11.052C3.738 10.556 3.762 10.308 3.69 10.0787C3.61933 9.84868 3.46 9.66268 3.14267 9.29201L2.85333 8.95334C1.73533 7.64668 1.17667 6.99268 1.37133 6.36534C1.566 5.73801 2.38667 5.55201 4.02667 5.18134L4.45067 5.08534C4.91667 4.98001 5.14933 4.92734 5.33667 4.78534C5.524 4.64334 5.64333 4.42801 5.88333 3.99734L6.102 3.60534Z" fill="#7B61FF" stroke="#7B61FF" stroke-width="1.5"/>
</g>
<defs>
<clipPath id="clip0_1_1123">
<rect width="16" height="16" fill="white"/>
</clipPath>
</defs>
</svg>
