<svg width="24" height="24" viewBox="0 0 24 24" fill="none" xmlns="http://www.w3.org/2000/svg">
<path d="M18.636 15.67L20.352 10.52C21.852 6.022 22.602 3.773 21.414 2.586C20.226 1.399 17.978 2.148 13.479 3.648L8.33 5.364C4.7 6.574 2.885 7.18 2.37 8.067C2.12941 8.48168 2.00269 8.95258 2.00269 9.432C2.00269 9.91142 2.12941 10.3823 2.37 10.797C2.885 11.685 4.7 12.29 8.33 13.501C8.914 13.695 9.205 13.792 9.449 13.955C9.685 14.113 9.888 14.316 10.046 14.552C10.209 14.796 10.306 15.087 10.5 15.67C11.71 19.3 12.316 21.116 13.203 21.632C13.6178 21.8728 14.0889 21.9996 14.5685 21.9996C15.0481 21.9996 15.5192 21.8728 15.934 21.632C16.821 21.116 17.425 19.301 18.636 15.67Z" stroke="#7B61FF" stroke-width="1.5"/>
<path d="M15.5045 8.84425L10.6646 13.6284L10.314 13.273L15.1529 8.48781L15.5045 8.84425Z" stroke="#7B61FF"/>
</svg>
